<?xml version="1.0" encoding="utf-8"?>
<!-- Generator: Adobe Illustrator 19.2.1, SVG Export Plug-In . SVG Version: 6.00 Build 0)  -->
<svg version="1.1" id="Layer_1" xmlns="http://www.w3.org/2000/svg" xmlns:xlink="http://www.w3.org/1999/xlink" x="0px" y="0px"
	 viewBox="0 0 1920 1080" style="enable-background:new 0 0 1920 1080;" xml:space="preserve">
<style type="text/css">
	.st0{fill:#FAFBFB;}
	.st1{opacity:0.7;fill:#FFFFFF;enable-background:new    ;}
	.st2{fill:url(#SVGID_1_);}
	.st3{fill:#35ABE2;}
</style>
<rect x="1.5" class="st0" width="1917" height="1080"/>
<image style="overflow:visible;enable-background:new    ;" width="1920" height="1080" xlink:href="3.jpg"  transform="matrix(1.0001 0 0 1.0001 0 0)">
</image>
<rect class="st1" width="1920" height="1080"/>
<g>
	<g>
		
			<radialGradient id="SVGID_1_" cx="1201.1461" cy="1214.9561" r="138.8285" gradientTransform="matrix(1 0 0 -1 0 1649.2)" gradientUnits="userSpaceOnUse">
			<stop  offset="0.2802" style="stop-color:#D83E28"/>
			<stop  offset="0.5187" style="stop-color:#E88320"/>
			<stop  offset="0.7179" style="stop-color:#F5B000"/>
			<stop  offset="0.8654" style="stop-color:#FECB00"/>
			<stop  offset="0.945" style="stop-color:#FFD500"/>
		</radialGradient>
		<path class="st2" d="M1315.6,510c-4.7,2.9-9.7,5.5-14.9,7.7c-61,25.6-133.7-9.2-162.5-77.8c-19.1-45.4-14-94.3,9.3-129.5
			c-49.9,20.3-85,68.1-85,123.9c0,74.2,62.1,134.3,138.6,134.3C1248.7,568.5,1290.7,545.3,1315.6,510z"/>
	</g>
	<g>
		<path class="st3" d="M597.5,766.5c0.3-7.7,1.1-17,1.6-26.5h-0.6c-12.6,22.2-29.8,29.5-45.4,29.5c-24.1,0-40.5-18.6-40.5-46.5
			c0-45.1,30.1-93.3,95.8-93.3c16.1,0,33.1,3,44,6.6l-13.4,70c-3.3,17.2-6,43.5-5.5,60.2H597.5L597.5,766.5z M608.2,660.7
			c-3-0.6-6.3-1.1-10.4-1.1c-25.4,0-44,31.2-44,56.1c0,13.1,5.2,22.2,16.1,22.2c11.8,0,26.8-13.4,32.8-46.2L608.2,660.7z"/>
		<path class="st3" d="M665.6,731.5c7.7,3.8,22.2,9.3,35,9.3c10.9,0,16.7-5.5,16.7-12c0-6.6-4.4-11.2-16.7-17.2
			c-15.3-7.7-28.2-18.9-28.2-35.6c0-27.9,24.4-46.2,58.8-46.2c15.6,0,27.9,3.3,34.2,6.8l-9.3,27.9c-5.5-2.5-15-5.7-26.8-5.7
			c-10.4,0-17.2,4.4-17.2,11.8c0,5.5,5.5,10.1,16.1,15c14.8,7.4,30.1,18.3,30.1,36.9c0,30.6-26,47.3-61.6,47
			c-16.7-0.3-32.8-4.6-40.7-10.4L665.6,731.5z"/>
		<path class="st3" d="M835.5,769.5c-34.2,0-56.9-22.2-56.9-55.3c0-46.2,32.3-84.5,79.9-84.5c36.1,0,56.9,24.6,56.9,55.3
			c0,48.7-33.6,84.5-79.6,84.5H835.5z M840.7,739.5c21.3,0,33.6-31.5,33.6-54.2c0-12.6-5.5-25.4-21.1-25.4
			c-22.7,0-34.2,32.8-34.2,53.6c0,15.6,7.9,26,21.3,26L840.7,739.5L840.7,739.5z"/>
		<path class="st3" d="M927.4,766.5l17-90.3c3.3-17,5.5-31.5,7.1-43.5h34.7l-2.5,22.2h0.6c12.6-17.2,29.3-25.2,46.8-25.2
			c21.9,0,34.5,13.4,34.5,36.7c0,6-1.1,15.9-2.2,22.4l-14.8,77.7h-39.4l14-74.1c0.8-4.6,1.4-9.8,1.4-14.8c0-9.6-3.3-16.1-13.4-16.1
			c-12.9,0-27.6,16.1-33.4,45.7l-10.9,59.4L927.4,766.5L927.4,766.5z"/>
		<path class="st3" d="M1142.4,769.5c-34.2,0-56.9-22.2-56.9-55.3c0-46.2,32.3-84.5,79.9-84.5c36.1,0,56.9,24.6,56.9,55.3
			c0,48.7-33.6,84.5-79.6,84.5H1142.4z M1147.6,739.5c21.3,0,33.6-31.5,33.6-54.2c0-12.6-5.5-25.4-21.1-25.4
			c-22.7,0-34.2,32.8-34.2,53.6c0,15.6,7.9,26,21.3,26L1147.6,739.5L1147.6,739.5z"/>
		<path class="st3" d="M1234.1,766.5l15.3-79.6c3.6-20.2,5.5-42.7,6.8-54.2h33.9c-0.5,9-1.4,18.1-2.5,27.6h1.1
			c9.3-18.1,24.1-30.6,42.4-30.6c2.7,0,5.2,0.3,7.4,0.3l-7.7,38.6c-1.6-0.3-3.8-0.3-6-0.3c-24.9,0-36.9,22.2-41.9,48.4l-9.3,49.8
			H1234.1L1234.1,766.5z"/>
		<path class="st3" d="M1378.1,581.9c16.1,0,29.2,13.3,29.2,29.6c0,16.6-13.1,29.8-29.3,29.8c-16.4,0-29.6-13.2-29.6-29.8
			c0-16.2,13.2-29.6,29.6-29.6H1378.1z M1377.8,587.8c-12.4,0-22.5,10.6-22.5,23.8c0,13.3,10,23.8,22.7,23.8
			c12.4,0.1,22.5-10.4,22.5-23.8C1400.5,598.4,1390.5,587.8,1377.8,587.8L1377.8,587.8z M1372.8,628.8h-7v-32.9
			c2.5-0.4,5.4-0.9,10.6-0.9c5.7,0,9.2,0.9,11.4,2.6c1.8,1.3,2.9,3.7,2.9,7c0,3.8-2.6,6.7-6.3,7.7v0.3c2.9,0.7,4.8,3.3,5.3,8
			c0.7,5.2,1.3,7.1,1.7,8.2h-7.1c-0.8-1.2-1.3-4.1-2-8.5c-0.5-3.6-2.6-5-6.3-5h-3L1372.8,628.8L1372.8,628.8z M1372.8,609.8h3.2
			c4.2,0,7.4-1.3,7.4-4.8c0-2.6-2-4.8-6.7-4.8c-1.7,0-2.9,0-3.8,0.1L1372.8,609.8L1372.8,609.8z"/>
	</g>
</g>
</svg>
