<?xml version="1.0" encoding="utf-8"?>
<!-- Generator: Adobe Illustrator 19.2.1, SVG Export Plug-In . SVG Version: 6.00 Build 0)  -->
<svg version="1.1" id="Capa_1" xmlns="http://www.w3.org/2000/svg" xmlns:xlink="http://www.w3.org/1999/xlink" x="0px" y="0px"
	 viewBox="0 0 485 485" style="enable-background:new 0 0 485 485;" xml:space="preserve">
<style type="text/css">
	.st0{fill:#FFFFFF;}
</style>
<path class="st0" d="M261.2,7.7C261.2,7.7,261.2,7.5,261.2,7.7c-0.7-0.7-1.3-1.3-2-1.8c-0.2-0.2-0.7-0.4-0.9-0.7
	c-0.4-0.2-0.7-0.7-1.1-0.9c-0.4-0.2-0.9-0.4-1.1-0.7c-0.4-0.2-0.7-0.4-1.1-0.7c-0.4-0.2-0.9-0.4-1.1-0.7c-0.4-0.2-0.7-0.4-1.1-0.4
	c-0.4-0.2-0.9-0.2-1.1-0.4c-0.4-0.2-0.9-0.2-1.3-0.4c-0.4-0.2-0.9-0.2-1.1-0.2c-0.4,0-0.9-0.2-1.3-0.2c-0.4,0-0.9-0.2-1.3-0.2
	c-0.4,0-0.7-0.2-1.1-0.2c-0.9,0-1.8-0.2-2.7-0.2c-0.9,0-1.8,0-2.7,0.2c-0.4,0-0.9,0.2-1.1,0.2c-0.4,0-0.9,0.2-1.3,0.2
	c-0.4,0-0.9,0.2-1.3,0.2c-0.4,0-0.9,0.2-1.3,0.2c-0.4,0.2-0.9,0.2-1.3,0.4s-0.9,0.2-1.1,0.4c-0.4,0.2-0.7,0.4-1.1,0.4
	c-0.4,0.2-0.9,0.4-1.3,0.7c-0.4,0.2-0.7,0.4-1.1,0.7c-0.4,0.2-0.9,0.4-1.1,0.7c-0.4,0.2-0.7,0.4-1.1,0.9c-0.4,0.2-0.7,0.4-1.1,0.7
	c-0.7,0.4-1.1,1.1-1.8,1.5l-0.2,0.2L118.5,113.1c-10.4,10.4-10.4,27.2,0,37.6c10.4,10.4,27.2,10.4,37.6,0l60-60v367.7
	C216,473,228,485,242.6,485c14.6,0,26.5-11.9,26.5-26.5V90.7l59.7,59.7c10.4,10.4,27.2,10.4,37.6,0c10.4-10.4,10.4-27.2,0-37.6
	L261.2,7.7z"/>
</svg>
