<?xml version="1.0" encoding="utf-8"?>
<!-- Generator: Adobe Illustrator 19.2.1, SVG Export Plug-In . SVG Version: 6.00 Build 0)  -->
<svg version="1.1" id="Capa_1" xmlns="http://www.w3.org/2000/svg" xmlns:xlink="http://www.w3.org/1999/xlink" x="0px" y="0px"
	 viewBox="0 0 485 485" style="enable-background:new 0 0 485 485;" xml:space="preserve">
<style type="text/css">
	.st0{fill:#FFFFFF;}
</style>
<g>
	<g>
		<line class="st0" x1="134.7" y1="458.5" x2="350.4" y2="242.8"/>
		<path d="M134.7,485c-6.8,0-13.6-2.6-18.7-7.8c-10.3-10.3-10.3-27.1,0-37.5l215.7-215.7c10.3-10.3,27.1-10.4,37.5,0
			c10.3,10.3,10.3,27.1,0,37.5L153.4,477.3C148.3,482.5,141.5,485,134.7,485z"/>
	</g>
	<g>
		<line class="st0" x1="134.6" y1="26.9" x2="350.3" y2="242.6"/>
		<path d="M350.3,269.1c-6.8,0-13.6-2.6-18.7-7.8L115.8,45.6c-10.3-10.3-10.3-27.1,0-37.5c10.3-10.3,27.1-10.3,37.5,0L369,223.9
			c10.3,10.3,10.3,27.1,0,37.5C363.9,266.6,357.1,269.1,350.3,269.1z"/>
	</g>
</g>
</svg>
