<?xml version="1.0" encoding="utf-8"?>
<!-- Generator: Adobe Illustrator 19.2.1, SVG Export Plug-In . SVG Version: 6.00 Build 0)  -->
<svg version="1.1" id="Layer_1" xmlns="http://www.w3.org/2000/svg" xmlns:xlink="http://www.w3.org/1999/xlink" x="0px" y="0px"
	 viewBox="0 0 512 262.8" style="enable-background:new 0 0 512 262.8;" xml:space="preserve">
<style type="text/css">
	.st0{fill:#FFFFFF;}
</style>
<g>
	<path class="st0" d="M459.5,114.2c-2.7,1.7-5.5,3.1-8.5,4.4c-34.9,14.7-76.5-5.3-93-44.5c-10.9-26-8-54,5.3-74.1
		c-28.6,11.6-48.6,39-48.6,70.9c0,42.4,35.5,76.9,79.3,76.9C421.2,147.8,445.3,134.5,459.5,114.2z"/>
</g>
<g>
	<path class="st0" d="M48.5,261.1c0.2-4.4,0.6-9.7,0.9-15.2h-0.3c-7.2,12.7-17.1,16.9-26,16.9C9.4,262.8,0,252.2,0,236.2
		c0-25.8,17.2-53.4,54.8-53.4c9.2,0,19,1.7,25.2,3.8l-7.7,40.1c-1.9,9.9-3.4,24.9-3.1,34.4L48.5,261.1L48.5,261.1z M54.6,200.5
		c-1.7-0.3-3.6-0.6-6-0.6c-14.6,0-25.2,17.8-25.2,32.1c0,7.5,3,12.7,9.2,12.7c6.7,0,15.3-7.7,18.8-26.5L54.6,200.5z"/>
	<path class="st0" d="M87.5,241c4.4,2.2,12.7,5.3,20,5.3c6.3,0,9.6-3.1,9.6-6.9c0-3.8-2.5-6.4-9.6-9.9c-8.8-4.4-16.1-10.8-16.1-20.4
		c0-16,13.9-26.5,33.7-26.5c8.9,0,16,1.9,19.6,3.9l-5.3,16c-3.1-1.4-8.6-3.3-15.3-3.3c-6,0-9.9,2.5-9.9,6.7c0,3.1,3.1,5.8,9.2,8.6
		c8.5,4.2,17.2,10.5,17.2,21.1c0,17.5-14.9,27.1-35.2,26.9c-9.6-0.2-18.8-2.7-23.3-6L87.5,241z"/>
	<path class="st0" d="M184.7,262.8c-19.6,0-32.6-12.7-32.6-31.6c0-26.5,18.5-48.4,45.7-48.4c20.7,0,32.6,14.1,32.6,31.6
		C230.4,242.3,211.1,262.8,184.7,262.8L184.7,262.8z M187.7,245.6c12.2,0,19.3-18,19.3-31c0-7.2-3.1-14.6-12.1-14.6
		c-13,0-19.6,18.8-19.6,30.7c0,8.9,4.5,14.9,12.2,14.9L187.7,245.6L187.7,245.6z"/>
	<path class="st0" d="M237.4,261.1l9.7-51.7c1.9-9.7,3.1-18,4.1-24.9H271l-1.4,12.7h0.3c7.2-9.9,16.8-14.4,26.8-14.4
		c12.5,0,19.7,7.7,19.7,21c0,3.4-0.6,9.1-1.2,12.8l-8.5,44.5h-22.6l8-42.4c0.5-2.7,0.8-5.6,0.8-8.5c0-5.5-1.9-9.2-7.7-9.2
		c-7.4,0-15.8,9.2-19.1,26.2l-6.3,34L237.4,261.1L237.4,261.1z"/>
	<path class="st0" d="M360.4,262.8c-19.6,0-32.6-12.7-32.6-31.6c0-26.5,18.5-48.4,45.7-48.4c20.7,0,32.6,14.1,32.6,31.6
		c0,27.9-19.3,48.4-45.6,48.4H360.4z M363.4,245.6c12.2,0,19.3-18,19.3-31c0-7.2-3.1-14.6-12.1-14.6c-13,0-19.6,18.8-19.6,30.7
		c0,8.9,4.5,14.9,12.2,14.9L363.4,245.6L363.4,245.6z"/>
	<path class="st0" d="M412.9,261.1l8.8-45.6c2-11.6,3.1-24.4,3.9-31H445c-0.3,5.2-0.8,10.3-1.4,15.8h0.6
		c5.3-10.3,13.8-17.5,24.3-17.5c1.6,0,3,0.2,4.2,0.2l-4.4,22.1c-0.9-0.2-2.2-0.2-3.4-0.2c-14.2,0-21.1,12.7-24,27.7l-5.3,28.5H412.9
		L412.9,261.1z"/>
	<path class="st0" d="M495.3,155.4c9.2,0,16.7,7.6,16.7,16.9c0,9.5-7.5,17.1-16.8,17.1c-9.4,0-16.9-7.6-16.9-17.1
		C478.3,163,485.8,155.4,495.3,155.4L495.3,155.4z M495.1,158.8c-7.1,0-12.8,6.1-12.8,13.6c0,7.6,5.7,13.6,13,13.6
		c7.1,0.1,12.8-6,12.8-13.6S502.4,158.8,495.1,158.8L495.1,158.8z M492.3,182.2h-4v-18.8c1.4-0.2,3.1-0.5,6.1-0.5
		c3.2,0,5.3,0.5,6.5,1.5c1.1,0.8,1.7,2.1,1.7,4c0,2.2-1.5,3.9-3.6,4.4v0.1c1.7,0.4,2.7,1.9,3,4.6c0.4,3,0.8,4.1,1,4.7h-4.1
		c-0.5-0.7-0.8-2.3-1.1-4.8c-0.3-2-1.5-2.9-3.6-2.9h-1.7L492.3,182.2L492.3,182.2z M492.3,171.3h1.8c2.4,0,4.2-0.8,4.2-2.7
		c0-1.5-1.1-2.7-3.9-2.7c-1,0-1.7,0-2.2,0.1v5.3H492.3z"/>
</g>
</svg>
