<?xml version="1.0" encoding="utf-8"?>
<!-- Generator: Adobe Illustrator 19.2.1, SVG Export Plug-In . SVG Version: 6.00 Build 0)  -->
<svg version="1.1" id="Capa_1" xmlns="http://www.w3.org/2000/svg" xmlns:xlink="http://www.w3.org/1999/xlink" x="0px" y="0px"
	 viewBox="0 0 512 138.2" style="enable-background:new 0 0 512 138.2;" xml:space="preserve">
<style type="text/css">
	.st0{fill:#FFFFFF;}
</style>
<path class="st0" d="M346,0h-39.5c-2.3,0-4.6,2.3-5.8,4.6l-16.3,102.2c0,2.3,1.2,3.5,3.5,3.5h20.9c2.3,0,3.5-1.2,3.5-3.5l4.6-29
	c0-2.3,2.3-4.6,5.8-4.6h12.8c26.7,0,41.8-12.8,45.3-38.3c2.3-10.4,0-19.7-4.6-25.5C369.2,3.5,358.7,0,346,0 M350.6,38.3
	c-2.3,13.9-12.8,13.9-23.2,13.9h-7l4.6-26.7c0-1.2,1.2-2.3,3.5-2.3h2.3c7,0,13.9,0,17.4,4.6C350.6,29,350.6,32.5,350.6,38.3"/>
<g>
	<path class="st0" d="M61.5,0H22.1c-2.3,0-4.6,2.3-5.8,4.6L0,106.8c0,2.3,1.2,3.5,3.5,3.5h18.6c2.3,0,4.6-2.3,5.8-4.6l4.6-27.9
		c0-2.3,2.3-4.6,5.8-4.6h12.8c26.7,0,41.8-12.8,45.3-38.3c2.3-10.4,0-19.7-4.6-25.5C84.8,3.5,75.5,0,61.5,0 M66.2,38.3
		C63.9,52.2,53.4,52.2,43,52.2h-5.8l4.6-26.7c0-1.2,1.2-2.3,3.5-2.3h2.3c7,0,13.9,0,17.4,4.6C66.2,29,67.3,32.5,66.2,38.3"/>
	<path class="st0" d="M181.1,37.2h-18.6c-1.2,0-3.5,1.2-3.5,2.3l-1.2,5.8l-1.2-2.3c-4.6-5.8-12.8-8.1-22.1-8.1
		c-20.9,0-39.5,16.3-43,38.3c-2.3,11.6,1.2,22.1,7,29c5.8,7,13.9,9.3,24.4,9.3c17.4,0,26.7-10.4,26.7-10.4l-1.2,5.8
		c0,2.3,1.2,3.5,3.5,3.5h17.4c2.3,0,4.6-2.3,5.8-4.6l10.4-65C184.6,39.5,182.3,37.2,181.1,37.2 M154.4,74.3
		c-2.3,10.4-10.4,18.6-22.1,18.6c-5.8,0-10.4-2.3-12.8-4.6c-2.3-3.5-3.5-8.1-3.5-13.9c1.2-10.4,10.4-18.6,20.9-18.6
		c5.8,0,9.3,2.3,12.8,4.6C153.3,63.9,154.4,69.7,154.4,74.3"/>
</g>
<path class="st0" d="M464.4,37.2h-18.6c-1.2,0-3.5,1.2-3.5,2.3l-1.2,5.8L440,43c-4.6-5.8-12.8-8.1-22.1-8.1
	c-20.9,0-39.5,16.3-43,38.3c-2.3,11.6,1.2,22.1,7,29c5.8,7,13.9,9.3,24.4,9.3c17.4,0,26.7-10.4,26.7-10.4l-1.2,5.8
	c0,2.3,1.2,3.5,3.5,3.5h17.4c2.3,0,4.6-2.3,5.8-4.6l10.4-65C467.9,39.5,466.7,37.2,464.4,37.2 M437.7,74.3
	c-2.3,10.4-10.4,18.6-22.1,18.6c-5.8,0-10.4-2.3-12.8-4.6c-2.3-3.5-3.5-8.1-3.5-13.9c1.2-10.4,10.4-18.6,20.9-18.6
	c5.8,0,9.3,2.3,12.8,4.6C437.7,63.9,438.9,69.7,437.7,74.3"/>
<path class="st0" d="M282.1,37.2h-19.7c-2.3,0-3.5,1.2-4.6,2.3l-25.5,39.5l-11.6-37.2c-1.2-2.3-2.3-3.5-5.8-3.5h-18.6
	c-2.3,0-3.5,2.3-3.5,4.6l20.9,61.5l-19.7,27.9c-1.2,2.3,0,5.8,2.3,5.8h18.6c2.3,0,3.5-1.2,4.6-2.3l63.9-91.7
	C286.8,40.6,284.4,37.2,282.1,37.2"/>
<path class="st0" d="M486.5,3.5L470.2,108c0,2.3,1.2,3.5,3.5,3.5h16.3c2.3,0,4.6-2.3,5.8-4.6L512,4.6c0-2.3-1.2-3.5-3.5-3.5h-18.6
	C488.8,0,487.6,1.2,486.5,3.5"/>
</svg>
