<?xml version="1.0" encoding="utf-8"?>
<!-- Generator: Adobe Illustrator 19.2.1, SVG Export Plug-In . SVG Version: 6.00 Build 0)  -->
<svg version="1.1" id="Capa_1" xmlns="http://www.w3.org/2000/svg" xmlns:xlink="http://www.w3.org/1999/xlink" x="0px" y="0px"
	 viewBox="0 0 477.3 477.3" style="enable-background:new 0 0 477.3 477.3;" xml:space="preserve">
<style type="text/css">
	.st0{fill:#666666;}
</style>
<g>
	<path class="st0" d="M451.3,150.6c-15.9-17.2-38.5-26.6-63.6-26.6h-65.5V87.2c0-6.6-5.4-12-12-12H12c-6.6,0-12,5.4-12,12V351
		c0,6.6,5.4,12,12,12h47.8c3.9,22.2,23.2,39.1,46.5,39.1s42.6-16.9,46.5-39.1h157.4h26.3c3.9,22.2,23.2,39.1,46.5,39.1
		s42.6-16.9,46.5-39.1h35.8c6.6,0,12-5.4,12-12V227C477.2,195.4,468.3,168.9,451.3,150.6z M24,99.2h274.2v36.8v203.2H150.7
		c-6.5-18.2-24-31.3-44.4-31.3S68.4,321,61.9,339.1H24V99.2z M106.3,378.1c-12.8,0-23.2-10.4-23.2-23.2c0-12.8,10.4-23.2,23.2-23.2
		s23.2,10.4,23.2,23.2S119.1,378.1,106.3,378.1z M383,378.1c-12.8,0-23.2-10.4-23.2-23.2c0-12.8,10.4-23.2,23.2-23.2
		c12.8,0,23.2,10.4,23.2,23.2S395.8,378.1,383,378.1z M453.2,339h-25.8c-6.5-18.2-24-31.3-44.4-31.3s-37.9,13.1-44.4,31.3h-16.3
		V147.9h65.5c40.4,0,65.5,30.3,65.5,79.1v112H453.2z"/>
</g>
</svg>
