<?xml version="1.0" encoding="utf-8"?>
<!-- Generator: Adobe Illustrator 19.2.1, SVG Export Plug-In . SVG Version: 6.00 Build 0)  -->
<svg version="1.1" id="Capa_1" xmlns="http://www.w3.org/2000/svg" xmlns:xlink="http://www.w3.org/1999/xlink" x="0px" y="0px"
	 viewBox="0 0 512 157.6" style="enable-background:new 0 0 512 157.6;" xml:space="preserve">
<style type="text/css">
	.st0{fill:#FFFFFF;}
</style>
<g>
	<g>
		<polygon class="st0" points="205,2.6 179,155.3 220.6,155.3 246.6,2.6 		"/>
	</g>
</g>
<g>
	<g>
		<path class="st0" d="M144.1,2.8l-40.8,104.1L99,91.2c-8-18.9-30.9-46.2-57.7-63.3l37.3,127.3l44-0.1L188.2,2.8L144.1,2.8z"/>
	</g>
</g>
<g>
	<g>
		<path class="st0" d="M83.2,13.7C80.8,4.4,73.8,1.6,65.1,1.3H0.5L0,4.4c50.2,12.2,83.4,41.5,97.2,76.8L83.2,13.7z"/>
	</g>
</g>
<g>
	<g>
		<path class="st0" d="M331,31.9c13.6-0.2,23.5,2.8,31.1,5.8l3.8,1.8l5.6-33.1C363.3,3.3,350.4,0,334.2,0
			c-41.1,0-70.1,20.7-70.3,50.4c-0.3,21.9,20.6,34.2,36.4,41.5c16.2,7.5,21.7,12.3,21.6,18.9c-0.1,10.2-12.9,14.9-24.9,14.9
			c-16.7,0-25.5-2.3-39.2-8l-5.4-2.4l-5.9,34.2c9.7,4.3,27.7,7.9,46.4,8.1c43.7,0,72.2-20.5,72.5-52.2c0.2-17.4-10.9-30.6-35-41.5
			C316,56.9,307.1,52.2,307.1,45C307.1,38.7,314.7,31.9,331,31.9z"/>
	</g>
</g>
<g>
	<g>
		<path class="st0" d="M478.3,2.8h-32.2c-10,0-17.4,2.7-21.8,12.7l-61.8,139.9h43.7c0,0,7.1-18.8,8.7-22.9c4.8,0,47.2,0.1,53.3,0.1
			c1.2,5.3,5.1,22.9,5.1,22.9H512L478.3,2.8z M427,101.2c3.4-8.8,16.6-42.7,16.6-42.7c-0.2,0.4,3.4-8.8,5.5-14.6l2.8,13.2
			c0,0,8,36.5,9.6,44.1H427z"/>
	</g>
</g>
</svg>
